<?xml version="1.0" encoding="utf-8"?>
<!-- Generator: Adobe Illustrator 19.0.0, SVG Export Plug-In . SVG Version: 6.00 Build 0)  -->
<svg version="1.1" id="Layer_1" xmlns="http://www.w3.org/2000/svg" xmlns:xlink="http://www.w3.org/1999/xlink" x="0px" y="0px"
	 viewBox="-445 224.7 108.1 52.3" style="enable-background:new -445 224.7 108.1 52.3;" xml:space="preserve">
<style type="text/css">
	.st0{fill:#008FB5;}
	.st1{fill:#78A302;}
</style>
<g>
	<path class="st0" d="M-367,263.9v-14.4l-6,10.1c-0.2,0.4-0.6,0.6-1.1,0.6h-1.2c-0.4,0-0.9-0.2-1.1-0.6l-6-10.1v14.4h-4.8v-20.3
		c0-0.5,0.4-0.9,0.9-0.9h3.7c0.3,0,0.6,0.2,0.8,0.4l7.1,11.5l7.1-11.5c0.2-0.3,0.5-0.4,0.8-0.4h3.7c0.5,0,0.9,0.4,0.9,0.9v20.3H-367
		z"/>
</g>
<g>
	<path class="st1" d="M-397.4,262.4c-0.9,0.5-1.8,0.9-2.8,1.2c-1,0.3-2,0.4-3.1,0.4c-1.7,0-3.3-0.3-4.7-1c-1.4-0.6-2.6-1.5-3.6-2.5
		c-1-1-1.8-2.2-2.3-3.6c-0.6-1.4-0.8-2.7-0.8-4.1c0-1.5,0.3-2.9,0.9-4.2c0.6-1.4,1.4-2.5,2.4-3.6c1-1,2.2-1.8,3.6-2.5
		c1.4-0.6,2.9-0.9,4.6-0.9c1.7,0,3.3,0.3,4.6,1c1.4,0.7,2.6,1.5,3.6,2.5c1,1,1.8,2.3,2.3,3.6c0.6,1.4,0.8,2.7,0.8,4.1
		c0,1.4-0.2,2.8-0.8,4.1c-0.6,1.3-1.3,2.5-2.3,3.4l2.5,2.6c0.3,0.3,0.1,0.8-0.4,0.8h-2.8c-0.3,0-0.6-0.1-0.7-0.3L-397.4,262.4z
		 M-403.3,260.3c0.6,0,1.2-0.1,1.7-0.2c0.5-0.1,1-0.3,1.4-0.6l-2.8-2.9c-0.3-0.3-0.1-0.9,0.4-0.9h2.9c0.1,0,0.3,0.1,0.4,0.2l1.5,1.5
		c0.4-0.7,0.8-1.4,1-2.2c0.2-0.8,0.4-1.6,0.4-2.4c0-0.9-0.2-1.8-0.5-2.8c-0.3-0.9-0.8-1.7-1.4-2.3s-1.3-1.2-2.2-1.7
		s-1.8-0.6-2.8-0.6c-1.1,0-2.1,0.2-2.9,0.6s-1.6,1-2.2,1.7c-0.6,0.7-1,1.5-1.3,2.3c-0.3,0.9-0.4,1.8-0.4,2.6c0,0.9,0.1,1.8,0.5,2.8
		c0.3,0.9,0.7,1.7,1.4,2.3c0.6,0.7,1.3,1.2,2.2,1.7C-405.4,260-404.4,260.3-403.3,260.3z"/>
</g>
</svg>
