<?xml version="1.0" encoding="utf-8"?>
<!-- Generator: Adobe Illustrator 19.0.0, SVG Export Plug-In . SVG Version: 6.00 Build 0)  -->
<svg version="1.1" id="Layer_1" xmlns="http://www.w3.org/2000/svg" xmlns:xlink="http://www.w3.org/1999/xlink" x="0px" y="0px"
	 viewBox="-284 211.6 267.5 78.4" style="enable-background:new -284 211.6 267.5 78.4;" xml:space="preserve">
<style type="text/css">
	.st0{fill:#212121;}
	.st1{fill:#008FB5;}
	.st2{fill:#78A302;}
</style>
<g>
	<path class="st0" d="M-112.1,279.6c-2.4,0-4.6-0.5-6.6-1.3s-3.7-2.1-5.2-3.7c-1.5-1.6-2.6-3.4-3.4-5.4c-0.8-2-1.2-4.2-1.2-6.6
		c0-2.3,0.4-4.5,1.2-6.5c0.8-2,1.9-3.8,3.4-5.3s3.2-2.7,5.2-3.6c2-0.9,4.2-1.3,6.5-1.3c2.4,0,4.6,0.5,6.6,1.3c2,0.9,3.7,2.1,5.1,3.7
		c1.4,1.5,2.5,3.3,3.3,5.3c0.8,2,1.2,4.1,1.2,6.4c0,0.3,0,0.7,0,1c0,0.3,0,0.6-0.1,0.7h-28c0.1,1.8,0.5,3.4,1.2,4.9s1.6,2.8,2.7,3.9
		c1.1,1.1,2.3,1.9,3.7,2.5c1.4,0.6,2.9,0.9,4.5,0.9c1,0,2.1-0.1,3.1-0.4c1-0.3,2-0.7,2.9-1.2c0.9-0.5,1.7-1.1,2.4-1.9
		c0.7-0.7,1.3-1.5,1.6-2.4l3.7,1c-0.5,1.2-1.2,2.3-2.1,3.3c-0.9,1-2,1.8-3.2,2.6c-1.2,0.7-2.6,1.3-4,1.7
		C-108.9,279.4-110.5,279.6-112.1,279.6z M-100,260.9c-0.1-1.8-0.5-3.4-1.2-4.8c-0.7-1.4-1.6-2.7-2.6-3.7c-1.1-1-2.3-1.9-3.7-2.4
		c-1.4-0.6-2.9-0.9-4.5-0.9c-1.6,0-3.1,0.3-4.5,0.9c-1.4,0.6-2.7,1.4-3.7,2.4c-1.1,1-1.9,2.3-2.6,3.8c-0.6,1.5-1,3.1-1.2,4.8H-100z"
		/>
	<path class="st0" d="M-81.1,279.6c-1.5,0-3-0.3-4.3-0.8c-1.3-0.5-2.5-1.2-3.5-2.2c-1-0.9-1.7-2-2.3-3.2c-0.5-1.2-0.8-2.6-0.8-4
		c0-1.4,0.3-2.7,1-4c0.7-1.2,1.6-2.3,2.8-3.1c1.2-0.9,2.7-1.6,4.3-2c1.7-0.5,3.5-0.7,5.5-0.7c1.7,0,3.4,0.1,5.1,0.4
		c1.7,0.3,3.2,0.7,4.6,1.3v-3c0-2.9-0.8-5.2-2.4-6.9s-3.9-2.5-6.8-2.5c-1.7,0-3.4,0.3-5.1,1c-1.8,0.7-3.5,1.6-5.3,2.9l-1.5-2.8
		c4.2-2.8,8.3-4.3,12.3-4.3c4.1,0,7.3,1.2,9.7,3.5c2.3,2.3,3.5,5.5,3.5,9.5v14.7c0,1.2,0.5,1.8,1.6,1.8v3.8
		c-0.7,0.1-1.3,0.2-1.6,0.2c-1.1,0-1.9-0.3-2.5-0.8c-0.6-0.5-0.9-1.3-1-2.3l-0.1-2.6c-1.5,2-3.4,3.5-5.7,4.5S-78.5,279.6-81.1,279.6
		z M-80.1,276.4c2.2,0,4.3-0.4,6.1-1.3c1.9-0.8,3.3-1.9,4.2-3.3c0.4-0.4,0.7-0.8,0.8-1.2s0.3-0.8,0.3-1.2V264
		c-1.4-0.5-2.9-1-4.4-1.3c-1.5-0.3-3.1-0.4-4.7-0.4c-3,0-5.5,0.6-7.3,1.9s-2.8,2.9-2.8,5c0,1,0.2,1.9,0.6,2.8
		c0.4,0.9,0.9,1.6,1.6,2.3c0.7,0.6,1.5,1.2,2.5,1.5C-82.2,276.2-81.2,276.4-80.1,276.4z"/>
	<path class="st0" d="M-27.6,279h-4.3v-18.3c0-3.9-0.6-6.7-1.7-8.5c-1.2-1.8-2.9-2.6-5.3-2.6c-1.3,0-2.5,0.2-3.8,0.7
		c-1.3,0.5-2.4,1.1-3.5,1.9c-1.1,0.8-2,1.8-2.9,3c-0.8,1.2-1.4,2.4-1.8,3.7v20h-4.3v-32.7h3.9v7.4c1.3-2.4,3.3-4.3,5.7-5.8
		c2.5-1.5,5.2-2.2,8.1-2.2c1.8,0,3.3,0.3,4.6,1c1.3,0.7,2.3,1.6,3,2.8c0.8,1.2,1.3,2.7,1.6,4.5c0.3,1.8,0.5,3.7,0.5,5.8V279z"/>
</g>
<g>
	<path class="st1" d="M-151.2,279v-36.9l-15.5,25.9c-0.6,1-1.6,1.6-2.8,1.6h-3.1c-1.1,0-2.2-0.6-2.8-1.6l-15.5-25.9V279h-12.4v-52.4
		c0-1.3,1.1-2.4,2.4-2.4h9.5c0.8,0,1.6,0.4,2.1,1.2L-171,255l18.4-29.6c0.4-0.7,1.2-1.2,2.1-1.2h9.4c1.3,0,2.4,1.1,2.4,2.4V279
		H-151.2z"/>
</g>
<g>
	<path class="st2" d="M-229.7,275.1c-2.2,1.3-4.6,2.3-7.1,3s-5.3,1.1-8.1,1.1c-4.4,0-8.4-0.8-12-2.5c-3.6-1.6-6.7-3.8-9.2-6.4
		c-2.6-2.6-4.6-5.7-6-9.1c-1.4-3.4-2.1-7-2.1-10.6c0-3.8,0.7-7.4,2.2-10.8c1.5-3.4,3.6-6.5,6.2-9.1c2.6-2.6,5.8-4.8,9.4-6.3
		c3.6-1.6,7.5-2.3,11.8-2.3c4.4,0,8.3,0.8,11.9,2.5c3.6,1.7,6.7,3.9,9.2,6.6c2.5,2.7,4.5,5.8,5.9,9.2c1.4,3.4,2.1,6.9,2.1,10.5
		c0,3.7-0.7,7.2-2.1,10.5c-1.4,3.3-3.3,6.3-5.8,8.9l6.3,6.6c0.7,0.8,0.2,2-0.9,2h-7.1c-0.7,0-1.4-0.3-1.9-0.8L-229.7,275.1z
		 M-244.8,269.5c1.5,0,3-0.2,4.3-0.5c1.3-0.3,2.6-0.8,3.7-1.4l-7.1-7.6c-0.8-0.8-0.2-2.1,0.9-2.1h7.5c0.4,0,0.8,0.2,1,0.4l3.7,3.9
		c1.1-1.7,2-3.5,2.6-5.6c0.6-2,0.9-4.1,0.9-6.1c0-2.4-0.4-4.8-1.2-7.1c-0.8-2.3-2-4.3-3.5-6c-1.5-1.7-3.3-3.2-5.5-4.2
		c-2.2-1.1-4.6-1.6-7.3-1.6c-2.8,0-5.3,0.5-7.5,1.6c-2.2,1.1-4,2.5-5.5,4.3c-1.5,1.8-2.6,3.8-3.3,6.1c-0.8,2.3-1.1,4.5-1.1,6.9
		c0,2.4,0.4,4.8,1.2,7.1c0.8,2.3,1.9,4.3,3.4,6c1.5,1.7,3.3,3.2,5.5,4.2C-250.1,269-247.6,269.5-244.8,269.5z"/>
</g>
</svg>
